<?xml version="1.0" encoding="utf-8"?>
<!-- Generator: Adobe Illustrator 27.7.0, SVG Export Plug-In . SVG Version: 6.00 Build 0)  -->
<svg version="1.1" id="Capa_1" xmlns="http://www.w3.org/2000/svg" xmlns:xlink="http://www.w3.org/1999/xlink" x="0px" y="0px"
  viewBox="0 0 64.3 25.4" style="enable-background:new 0 0 64.3 25.4;" xml:space="preserve">
<style type="text/css">
	.st0{fill:#FFFFFF;}
</style>
<g>
	<rect width="64.3" height="25.4"/>
	<path d="M49.8,8.2V11l5.1,1.7l-5.1,1.7v2.8l8.5-3.1v-2.9L49.8,8.2z M48.1,8.2l-8.5,3.1v2.9l8.5,3.1v-2.8l-5.1-1.7l5.1-1.7V8.2z
    M30.5,20.2h3.3l5.4-15.6h-3.3L30.5,20.2z M21.6,8.2V11l5.1,1.7l-5.1,1.7v2.8l8.4-3.1v-2.9L21.6,8.2z M12.8,13.8h-1.6l0.2-2.1h1.7
		L12.8,13.8z M18,11.6V9.2H16L16.3,7h-2.7l-0.3,2.1h-1.7L11.9,7H9.3L9,9.2H6.7v2.5h2l-0.2,2.1H6.1v2.5h2l-0.3,2.1h2.7l0.3-2.1h1.6
		l-0.3,2.1h2.6l0.3-2.1h2.3v-2.5h-1.9l0.2-2.1H18z"/>
</g>
</svg>
